<svg width="241" height="133" fill="none" xmlns="http://www.w3.org/2000/svg"><circle cx="1.5" cy="1.5" r="1.5" fill="#BADEBC"/><circle cx="1.5" cy="27.5" r="1.5" fill="#BADEBC"/><circle cx="1.5" cy="53.5" r="1.5" fill="#BADEBC"/><circle cx="1.5" cy="79.5" r="1.5" fill="#BADEBC"/><circle cx="1.5" cy="105.5" r="1.5" fill="#BADEBC"/><circle cx="1.5" cy="131.5" r="1.5" fill="#BADEBC"/><circle cx="35.5" cy="1.5" r="1.5" fill="#BADEBC"/><circle cx="35.5" cy="27.5" r="1.5" fill="#BADEBC"/><circle cx="35.5" cy="53.5" r="1.5" fill="#BADEBC"/><circle cx="35.5" cy="79.5" r="1.5" fill="#BADEBC"/><circle cx="35.5" cy="105.5" r="1.5" fill="#BADEBC"/><circle cx="35.5" cy="131.5" r="1.5" fill="#BADEBC"/><circle cx="69.5" cy="1.5" r="1.5" fill="#BADEBC"/><circle cx="69.5" cy="27.5" r="1.5" fill="#BADEBC"/><circle cx="69.5" cy="53.5" r="1.5" fill="#BADEBC"/><circle cx="69.5" cy="79.5" r="1.5" fill="#BADEBC"/><circle cx="69.5" cy="105.5" r="1.5" fill="#BADEBC"/><circle cx="69.5" cy="131.5" r="1.5" fill="#BADEBC"/><circle cx="103.5" cy="1.5" r="1.5" fill="#BADEBC"/><circle cx="103.5" cy="27.5" r="1.5" fill="#BADEBC"/><circle cx="103.5" cy="53.5" r="1.5" fill="#BADEBC"/><circle cx="103.5" cy="79.5" r="1.5" fill="#BADEBC"/><circle cx="103.5" cy="105.5" r="1.5" fill="#BADEBC"/><circle cx="103.5" cy="131.5" r="1.5" fill="#BADEBC"/><circle cx="137.5" cy="1.5" r="1.5" fill="#BADEBC"/><circle cx="137.5" cy="27.5" r="1.5" fill="#BADEBC"/><circle cx="137.5" cy="53.5" r="1.5" fill="#BADEBC"/><circle cx="137.5" cy="79.5" r="1.5" fill="#BADEBC"/><circle cx="137.5" cy="105.5" r="1.5" fill="#BADEBC"/><circle cx="137.5" cy="131.5" r="1.5" fill="#BADEBC"/><circle cx="171.5" cy="1.5" r="1.5" fill="#BADEBC"/><circle cx="171.5" cy="27.5" r="1.5" fill="#BADEBC"/><circle cx="171.5" cy="53.5" r="1.5" fill="#BADEBC"/><circle cx="171.5" cy="79.5" r="1.5" fill="#BADEBC"/><circle cx="171.5" cy="105.5" r="1.5" fill="#BADEBC"/><circle cx="171.5" cy="131.5" r="1.5" fill="#BADEBC"/><circle cx="205.5" cy="1.5" r="1.5" fill="#BADEBC"/><circle cx="205.5" cy="27.5" r="1.5" fill="#BADEBC"/><circle cx="205.5" cy="53.5" r="1.5" fill="#BADEBC"/><circle cx="205.5" cy="79.5" r="1.5" fill="#BADEBC"/><circle cx="205.5" cy="105.5" r="1.5" fill="#BADEBC"/><circle cx="205.5" cy="131.5" r="1.5" fill="#BADEBC"/><circle cx="239.5" cy="1.5" r="1.5" fill="#BADEBC"/><circle cx="239.5" cy="27.5" r="1.5" fill="#BADEBC"/><circle cx="239.5" cy="53.5" r="1.5" fill="#BADEBC"/><circle cx="239.5" cy="79.5" r="1.5" fill="#BADEBC"/><circle cx="239.5" cy="105.5" r="1.5" fill="#BADEBC"/><circle cx="239.5" cy="131.5" r="1.5" fill="#BADEBC"/></svg>