<svg width="375" height="420" fill="none" xmlns="http://www.w3.org/2000/svg"><g clip-path="url(#clip0_576:30036)"><path fill="#5BB261" d="M0 0h375v420H0z"/><circle cx="288.5" cy="289.5" r="1.5" fill="#316835"/><circle cx="288.5" cy="324.5" r="1.5" fill="#316835"/><circle cx="288.5" cy="359.5" r="1.5" fill="#316835"/><circle cx="288.5" cy="394.5" r="1.5" fill="#316835"/><circle cx="323.5" cy="289.5" r="1.5" fill="#316835"/><circle cx="323.5" cy="324.5" r="1.5" fill="#316835"/><circle cx="323.5" cy="359.5" r="1.5" fill="#316835"/><circle cx="323.5" cy="394.5" r="1.5" fill="#316835"/><circle cx="358.5" cy="289.5" r="1.5" fill="#316835"/><circle cx="358.5" cy="324.5" r="1.5" fill="#316835"/><circle cx="358.5" cy="359.5" r="1.5" fill="#316835"/><circle cx="358.5" cy="394.5" r="1.5" fill="#316835"/><circle cx="11.5" cy="97.5" r="1.5" transform="rotate(-90 11.5 97.5)" fill="#316835"/><circle cx="46.5" cy="97.5" r="1.5" transform="rotate(-90 46.5 97.5)" fill="#316835"/><circle cx="81.5" cy="97.5" r="1.5" transform="rotate(-90 81.5 97.5)" fill="#316835"/><circle cx="116.5" cy="97.5" r="1.5" transform="rotate(-90 116.5 97.5)" fill="#316835"/><circle cx="11.5" cy="62.5" r="1.5" transform="rotate(-90 11.5 62.5)" fill="#316835"/><circle cx="46.5" cy="62.5" r="1.5" transform="rotate(-90 46.5 62.5)" fill="#316835"/><circle cx="81.5" cy="62.5" r="1.5" transform="rotate(-90 81.5 62.5)" fill="#316835"/><circle cx="116.5" cy="62.5" r="1.5" transform="rotate(-90 116.5 62.5)" fill="#316835"/><circle cx="11.5" cy="27.5" r="1.5" transform="rotate(-90 11.5 27.5)" fill="#316835"/><circle cx="46.5" cy="27.5" r="1.5" transform="rotate(-90 46.5 27.5)" fill="#316835"/><circle cx="81.5" cy="27.5" r="1.5" transform="rotate(-90 81.5 27.5)" fill="#316835"/><circle cx="116.5" cy="27.5" r="1.5" transform="rotate(-90 116.5 27.5)" fill="#316835"/><path opacity=".3" fill-rule="evenodd" clip-rule="evenodd" d="M183.812 599.753c5.792 93.94 66.008 170.43 117.727 249.139 54.677 83.21 96.755 187.218 190.781 220.358 94.599 33.35 194.236-18.62 289.105-51.19 93.07-31.959 194.925-56.875 254.125-135.334 59.64-79.042 68.27-184.266 61.5-282.973-6.41-93.532-44.79-179.227-98.466-256.175-54.674-78.381-117.108-160.774-209.573-185.426-90.763-24.198-179.436 28.829-268.751 57.902-89.184 29.03-189.114 40.799-250.884 111.245-64.383 73.425-91.569 175.079-85.564 272.454zm-953-748c5.792 93.94 66.008 170.43 117.727 249.139 54.677 83.21 96.755 187.217 190.781 220.362 94.599 33.348 194.236-18.62 289.105-51.196 93.07-31.957 194.925-56.873 254.125-135.332 59.639-79.042 68.267-184.266 61.499-282.973-6.412-93.532-44.79-179.227-98.465-256.175C-9.09-482.803-71.524-565.196-163.989-589.848c-90.763-24.198-179.436 28.829-268.751 57.902-89.184 29.03-189.114 40.799-250.884 111.245-64.383 73.425-91.569 175.079-85.564 272.454z" fill="#316835"/><path opacity=".3" clip-rule="evenodd" d="M243.812 261.753c5.792 93.94 66.008 170.43 117.727 249.139 54.677 83.21 96.755 187.217 190.781 220.362 94.599 33.348 194.236-18.62 289.105-51.196 93.07-31.957 194.925-56.873 254.125-135.332 59.64-79.042 68.27-184.266 61.5-282.973-6.41-93.532-44.79-179.227-98.47-256.175-54.67-78.38-117.104-160.774-209.569-185.426-90.763-24.198-179.436 28.829-268.751 57.902-89.184 29.03-189.114 40.8-250.884 111.245-64.383 73.424-91.569 175.079-85.564 272.454z" stroke="#316835" stroke-width="2"/></g><defs><clipPath id="clip0_576:30036"><path fill="#fff" d="M0 0h375v420H0z"/></clipPath></defs></svg>