<svg width="1060" height="392" fill="none" xmlns="http://www.w3.org/2000/svg"><g clip-path="url(#a)"><path fill="#5BB261" d="M0 0h1060v392H0z"/><circle cx="818.5" cy="153.5" r="1.5" fill="#316835"/><circle cx="818.5" cy="188.5" r="1.5" fill="#316835"/><circle cx="818.5" cy="223.5" r="1.5" fill="#316835"/><circle cx="818.5" cy="258.5" r="1.5" fill="#316835"/><circle cx="818.5" cy="293.5" r="1.5" fill="#316835"/><circle cx="818.5" cy="328.5" r="1.5" fill="#316835"/><circle cx="818.5" cy="363.5" r="1.5" fill="#316835"/><circle cx="853.5" cy="153.5" r="1.5" fill="#316835"/><circle cx="853.5" cy="188.5" r="1.5" fill="#316835"/><circle cx="853.5" cy="223.5" r="1.5" fill="#316835"/><circle cx="853.5" cy="258.5" r="1.5" fill="#316835"/><circle cx="853.5" cy="293.5" r="1.5" fill="#316835"/><circle cx="853.5" cy="328.5" r="1.5" fill="#316835"/><circle cx="853.5" cy="363.5" r="1.5" fill="#316835"/><circle cx="888.5" cy="153.5" r="1.5" fill="#316835"/><circle cx="888.5" cy="188.5" r="1.5" fill="#316835"/><circle cx="888.5" cy="223.5" r="1.5" fill="#316835"/><circle cx="888.5" cy="258.5" r="1.5" fill="#316835"/><circle cx="888.5" cy="293.5" r="1.5" fill="#316835"/><circle cx="888.5" cy="328.5" r="1.5" fill="#316835"/><circle cx="888.5" cy="363.5" r="1.5" fill="#316835"/><circle cx="923.5" cy="153.5" r="1.5" fill="#316835"/><circle cx="923.5" cy="188.5" r="1.5" fill="#316835"/><circle cx="923.5" cy="223.5" r="1.5" fill="#316835"/><circle cx="923.5" cy="258.5" r="1.5" fill="#316835"/><circle cx="923.5" cy="293.5" r="1.5" fill="#316835"/><circle cx="923.5" cy="328.5" r="1.5" fill="#316835"/><circle cx="923.5" cy="363.5" r="1.5" fill="#316835"/><circle cx="958.5" cy="153.5" r="1.5" fill="#316835"/><circle cx="958.5" cy="188.5" r="1.5" fill="#316835"/><circle cx="958.5" cy="223.5" r="1.5" fill="#316835"/><circle cx="958.5" cy="258.5" r="1.5" fill="#316835"/><circle cx="958.5" cy="293.5" r="1.5" fill="#316835"/><circle cx="958.5" cy="328.5" r="1.5" fill="#316835"/><circle cx="958.5" cy="363.5" r="1.5" fill="#316835"/><circle cx="993.5" cy="153.5" r="1.5" fill="#316835"/><circle cx="993.5" cy="188.5" r="1.5" fill="#316835"/><circle cx="993.5" cy="223.5" r="1.5" fill="#316835"/><circle cx="993.5" cy="258.5" r="1.5" fill="#316835"/><circle cx="993.5" cy="293.5" r="1.5" fill="#316835"/><circle cx="993.5" cy="328.5" r="1.5" fill="#316835"/><circle cx="993.5" cy="363.5" r="1.5" fill="#316835"/><circle cx="1028.5" cy="153.5" r="1.5" fill="#316835"/><circle cx="1028.5" cy="188.5" r="1.5" fill="#316835"/><circle cx="1028.5" cy="223.5" r="1.5" fill="#316835"/><circle cx="1028.5" cy="258.5" r="1.5" fill="#316835"/><circle cx="1028.5" cy="293.5" r="1.5" fill="#316835"/><circle cx="1028.5" cy="328.5" r="1.5" fill="#316835"/><circle cx="1028.5" cy="363.5" r="1.5" fill="#316835"/><circle cx="162.5" cy="200.5" r="1.5" transform="rotate(-90 162.5 200.5)" fill="#316835"/><circle cx="197.5" cy="200.5" r="1.5" transform="rotate(-90 197.5 200.5)" fill="#316835"/><circle cx="232.5" cy="200.5" r="1.5" transform="rotate(-90 232.5 200.5)" fill="#316835"/><circle cx="267.5" cy="200.5" r="1.5" transform="rotate(-90 267.5 200.5)" fill="#316835"/><circle cx="302.5" cy="200.5" r="1.5" transform="rotate(-90 302.5 200.5)" fill="#316835"/><circle cx="337.5" cy="200.5" r="1.5" transform="rotate(-90 337.5 200.5)" fill="#316835"/><circle cx="372.5" cy="200.5" r="1.5" transform="rotate(-90 372.5 200.5)" fill="#316835"/><circle cx="407.5" cy="200.5" r="1.5" transform="rotate(-90 407.5 200.5)" fill="#316835"/><circle cx="162.5" cy="165.5" r="1.5" transform="rotate(-90 162.5 165.5)" fill="#316835"/><circle cx="197.5" cy="165.5" r="1.5" transform="rotate(-90 197.5 165.5)" fill="#316835"/><circle cx="232.5" cy="165.5" r="1.5" transform="rotate(-90 232.5 165.5)" fill="#316835"/><circle cx="267.5" cy="165.5" r="1.5" transform="rotate(-90 267.5 165.5)" fill="#316835"/><circle cx="302.5" cy="165.5" r="1.5" transform="rotate(-90 302.5 165.5)" fill="#316835"/><circle cx="337.5" cy="165.5" r="1.5" transform="rotate(-90 337.5 165.5)" fill="#316835"/><circle cx="372.5" cy="165.5" r="1.5" transform="rotate(-90 372.5 165.5)" fill="#316835"/><circle cx="407.5" cy="165.5" r="1.5" transform="rotate(-90 407.5 165.5)" fill="#316835"/><circle cx="162.5" cy="130.5" r="1.5" transform="rotate(-90 162.5 130.5)" fill="#316835"/><circle cx="197.5" cy="130.5" r="1.5" transform="rotate(-90 197.5 130.5)" fill="#316835"/><circle cx="232.5" cy="130.5" r="1.5" transform="rotate(-90 232.5 130.5)" fill="#316835"/><circle cx="267.5" cy="130.5" r="1.5" transform="rotate(-90 267.5 130.5)" fill="#316835"/><circle cx="302.5" cy="130.5" r="1.5" transform="rotate(-90 302.5 130.5)" fill="#316835"/><circle cx="337.5" cy="130.5" r="1.5" transform="rotate(-90 337.5 130.5)" fill="#316835"/><circle cx="372.5" cy="130.5" r="1.5" transform="rotate(-90 372.5 130.5)" fill="#316835"/><circle cx="407.5" cy="130.5" r="1.5" transform="rotate(-90 407.5 130.5)" fill="#316835"/><circle cx="162.5" cy="95.5" r="1.5" transform="rotate(-90 162.5 95.5)" fill="#316835"/><circle cx="197.5" cy="95.5" r="1.5" transform="rotate(-90 197.5 95.5)" fill="#316835"/><circle cx="232.5" cy="95.5" r="1.5" transform="rotate(-90 232.5 95.5)" fill="#316835"/><circle cx="267.5" cy="95.5" r="1.5" transform="rotate(-90 267.5 95.5)" fill="#316835"/><circle cx="302.5" cy="95.5" r="1.5" transform="rotate(-90 302.5 95.5)" fill="#316835"/><circle cx="337.5" cy="95.5" r="1.5" transform="rotate(-90 337.5 95.5)" fill="#316835"/><circle cx="372.5" cy="95.5" r="1.5" transform="rotate(-90 372.5 95.5)" fill="#316835"/><circle cx="407.5" cy="95.5" r="1.5" transform="rotate(-90 407.5 95.5)" fill="#316835"/><circle cx="162.5" cy="60.5" r="1.5" transform="rotate(-90 162.5 60.5)" fill="#316835"/><circle cx="197.5" cy="60.5" r="1.5" transform="rotate(-90 197.5 60.5)" fill="#316835"/><circle cx="232.5" cy="60.5" r="1.5" transform="rotate(-90 232.5 60.5)" fill="#316835"/><circle cx="267.5" cy="60.5" r="1.5" transform="rotate(-90 267.5 60.5)" fill="#316835"/><circle cx="302.5" cy="60.5" r="1.5" transform="rotate(-90 302.5 60.5)" fill="#316835"/><circle cx="337.5" cy="60.5" r="1.5" transform="rotate(-90 337.5 60.5)" fill="#316835"/><circle cx="372.5" cy="60.5" r="1.5" transform="rotate(-90 372.5 60.5)" fill="#316835"/><circle cx="407.5" cy="60.5" r="1.5" transform="rotate(-90 407.5 60.5)" fill="#316835"/><circle cx="162.5" cy="25.5" r="1.5" transform="rotate(-90 162.5 25.5)" fill="#316835"/><circle cx="197.5" cy="25.5" r="1.5" transform="rotate(-90 197.5 25.5)" fill="#316835"/><circle cx="232.5" cy="25.5" r="1.5" transform="rotate(-90 232.5 25.5)" fill="#316835"/><circle cx="267.5" cy="25.5" r="1.5" transform="rotate(-90 267.5 25.5)" fill="#316835"/><circle cx="302.5" cy="25.5" r="1.5" transform="rotate(-90 302.5 25.5)" fill="#316835"/><circle cx="337.5" cy="25.5" r="1.5" transform="rotate(-90 337.5 25.5)" fill="#316835"/><circle cx="372.5" cy="25.5" r="1.5" transform="rotate(-90 372.5 25.5)" fill="#316835"/><circle cx="407.5" cy="25.5" r="1.5" transform="rotate(-90 407.5 25.5)" fill="#316835"/><path opacity=".3" fill-rule="evenodd" clip-rule="evenodd" d="M635.812 599.753c5.792 93.94 66.008 170.43 117.727 249.139 54.677 83.21 96.755 187.218 190.781 220.358 94.6 33.35 194.24-18.62 289.11-51.19 93.07-31.959 194.92-56.875 254.12-135.334 59.64-79.042 68.27-184.266 61.5-282.973-6.41-93.532-44.79-179.227-98.47-256.175-54.67-78.381-117.1-160.774-209.57-185.426-90.76-24.198-179.44 28.829-268.75 57.902-89.184 29.03-189.114 40.799-250.884 111.245-64.383 73.425-91.569 175.079-85.564 272.454zm-1291-748c5.792 93.94 66.008 170.43 117.727 249.139 54.677 83.21 96.755 187.217 190.781 220.362 94.599 33.348 194.236-18.62 289.105-51.196 93.07-31.957 194.925-56.873 254.125-135.332 59.639-79.042 68.267-184.266 61.499-282.973-6.412-93.532-44.79-179.227-98.465-256.175C104.91-482.803 42.476-565.196-49.989-589.848c-90.763-24.198-179.436 28.829-268.751 57.902-89.184 29.03-189.114 40.799-250.884 111.245-64.383 73.425-91.569 175.079-85.564 272.454z" fill="#316835"/><path opacity=".3" clip-rule="evenodd" d="M695.812 261.753c5.792 93.94 66.008 170.43 117.727 249.139 54.677 83.21 96.755 187.217 190.781 220.362 94.6 33.348 194.24-18.62 289.11-51.196 93.07-31.957 194.92-56.873 254.12-135.332 59.64-79.042 68.27-184.266 61.5-282.973-6.41-93.532-44.79-179.227-98.47-256.175-54.67-78.38-117.1-160.774-209.57-185.426-90.76-24.198-179.44 28.829-268.75 57.902-89.184 29.03-189.114 40.8-250.884 111.245-64.383 73.424-91.569 175.079-85.564 272.454z" stroke="#316835" stroke-width="2"/></g><defs><clipPath id="a"><path d="M0 32C0 14.327 14.327 0 32 0h996c17.67 0 32 14.327 32 32v328c0 17.673-14.33 32-32 32H32c-17.673 0-32-14.327-32-32V32z" fill="#fff"/></clipPath></defs></svg>