<svg width="248" height="338" fill="none" xmlns="http://www.w3.org/2000/svg"><circle cx="246.5" cy="21.5" r="1.5" transform="rotate(90 246.5 21.5)" fill="#5BB261"/><circle cx="211.5" cy="21.5" r="1.5" transform="rotate(90 211.5 21.5)" fill="#5BB261"/><circle cx="176.5" cy="21.5" r="1.5" transform="rotate(90 176.5 21.5)" fill="#5BB261"/><circle cx="141.5" cy="21.5" r="1.5" transform="rotate(90 141.5 21.5)" fill="#5BB261"/><circle cx="106.5" cy="21.5" r="1.5" transform="rotate(90 106.5 21.5)" fill="#5BB261"/><circle cx="71.5" cy="21.5" r="1.5" transform="rotate(90 71.5 21.5)" fill="#5BB261"/><circle cx="36.5" cy="21.5" r="1.5" transform="rotate(90 36.5 21.5)" fill="#5BB261"/><circle cx="1.5" cy="21.5" r="1.5" transform="rotate(90 1.5 21.5)" fill="#5BB261"/><circle cx="246.5" cy="56.5" r="1.5" transform="rotate(90 246.5 56.5)" fill="#5BB261"/><circle cx="211.5" cy="56.5" r="1.5" transform="rotate(90 211.5 56.5)" fill="#5BB261"/><circle cx="176.5" cy="56.5" r="1.5" transform="rotate(90 176.5 56.5)" fill="#5BB261"/><circle cx="141.5" cy="56.5" r="1.5" transform="rotate(90 141.5 56.5)" fill="#5BB261"/><circle cx="106.5" cy="56.5" r="1.5" transform="rotate(90 106.5 56.5)" fill="#5BB261"/><circle cx="71.5" cy="56.5" r="1.5" transform="rotate(90 71.5 56.5)" fill="#5BB261"/><circle cx="36.5" cy="56.5" r="1.5" transform="rotate(90 36.5 56.5)" fill="#5BB261"/><circle cx="1.5" cy="56.5" r="1.5" transform="rotate(90 1.5 56.5)" fill="#5BB261"/><circle cx="246.5" cy="91.5" r="1.5" transform="rotate(90 246.5 91.5)" fill="#5BB261"/><circle cx="211.5" cy="91.5" r="1.5" transform="rotate(90 211.5 91.5)" fill="#5BB261"/><circle cx="176.5" cy="91.5" r="1.5" transform="rotate(90 176.5 91.5)" fill="#5BB261"/><circle cx="141.5" cy="91.5" r="1.5" transform="rotate(90 141.5 91.5)" fill="#5BB261"/><circle cx="106.5" cy="91.5" r="1.5" transform="rotate(90 106.5 91.5)" fill="#5BB261"/><circle cx="71.5" cy="91.5" r="1.5" transform="rotate(90 71.5 91.5)" fill="#5BB261"/><circle cx="36.5" cy="91.5" r="1.5" transform="rotate(90 36.5 91.5)" fill="#5BB261"/><circle cx="1.5" cy="91.5" r="1.5" transform="rotate(90 1.5 91.5)" fill="#5BB261"/><circle cx="246.5" cy="126.5" r="1.5" transform="rotate(90 246.5 126.5)" fill="#5BB261"/><circle cx="211.5" cy="126.5" r="1.5" transform="rotate(90 211.5 126.5)" fill="#5BB261"/><circle cx="176.5" cy="126.5" r="1.5" transform="rotate(90 176.5 126.5)" fill="#5BB261"/><circle cx="141.5" cy="126.5" r="1.5" transform="rotate(90 141.5 126.5)" fill="#5BB261"/><circle cx="106.5" cy="126.5" r="1.5" transform="rotate(90 106.5 126.5)" fill="#5BB261"/><circle cx="71.5" cy="126.5" r="1.5" transform="rotate(90 71.5 126.5)" fill="#5BB261"/><circle cx="36.5" cy="126.5" r="1.5" transform="rotate(90 36.5 126.5)" fill="#5BB261"/><circle cx="1.5" cy="126.5" r="1.5" transform="rotate(90 1.5 126.5)" fill="#5BB261"/><circle cx="246.5" cy="161.5" r="1.5" transform="rotate(90 246.5 161.5)" fill="#5BB261"/><circle cx="211.5" cy="161.5" r="1.5" transform="rotate(90 211.5 161.5)" fill="#5BB261"/><circle cx="176.5" cy="161.5" r="1.5" transform="rotate(90 176.5 161.5)" fill="#5BB261"/><circle cx="141.5" cy="161.5" r="1.5" transform="rotate(90 141.5 161.5)" fill="#5BB261"/><circle cx="106.5" cy="161.5" r="1.5" transform="rotate(90 106.5 161.5)" fill="#5BB261"/><circle cx="71.5" cy="161.5" r="1.5" transform="rotate(90 71.5 161.5)" fill="#5BB261"/><circle cx="36.5" cy="161.5" r="1.5" transform="rotate(90 36.5 161.5)" fill="#5BB261"/><circle cx="1.5" cy="161.5" r="1.5" transform="rotate(90 1.5 161.5)" fill="#5BB261"/><circle cx="246.5" cy="196.5" r="1.5" transform="rotate(90 246.5 196.5)" fill="#5BB261"/><circle cx="211.5" cy="196.5" r="1.5" transform="rotate(90 211.5 196.5)" fill="#5BB261"/><circle cx="176.5" cy="196.5" r="1.5" transform="rotate(90 176.5 196.5)" fill="#5BB261"/><circle cx="141.5" cy="196.5" r="1.5" transform="rotate(90 141.5 196.5)" fill="#5BB261"/><circle cx="106.5" cy="196.5" r="1.5" transform="rotate(90 106.5 196.5)" fill="#5BB261"/><circle cx="71.5" cy="196.5" r="1.5" transform="rotate(90 71.5 196.5)" fill="#5BB261"/><circle cx="36.5" cy="196.5" r="1.5" transform="rotate(90 36.5 196.5)" fill="#5BB261"/><circle cx="1.5" cy="196.5" r="1.5" transform="rotate(90 1.5 196.5)" fill="#5BB261"/><circle cx="246.5" cy="231.5" r="1.5" transform="rotate(90 246.5 231.5)" fill="#5BB261"/><circle cx="211.5" cy="231.5" r="1.5" transform="rotate(90 211.5 231.5)" fill="#5BB261"/><circle cx="176.5" cy="231.5" r="1.5" transform="rotate(90 176.5 231.5)" fill="#5BB261"/><circle cx="141.5" cy="231.5" r="1.5" transform="rotate(90 141.5 231.5)" fill="#5BB261"/><circle cx="106.5" cy="231.5" r="1.5" transform="rotate(90 106.5 231.5)" fill="#5BB261"/><circle cx="71.5" cy="231.5" r="1.5" transform="rotate(90 71.5 231.5)" fill="#5BB261"/><circle cx="36.5" cy="231.5" r="1.5" transform="rotate(90 36.5 231.5)" fill="#5BB261"/><circle cx="1.5" cy="231.5" r="1.5" transform="rotate(90 1.5 231.5)" fill="#5BB261"/><circle cx="246.5" cy="266.5" r="1.5" transform="rotate(90 246.5 266.5)" fill="#5BB261"/><circle cx="211.5" cy="266.5" r="1.5" transform="rotate(90 211.5 266.5)" fill="#5BB261"/><circle cx="176.5" cy="266.5" r="1.5" transform="rotate(90 176.5 266.5)" fill="#5BB261"/><circle cx="141.5" cy="266.5" r="1.5" transform="rotate(90 141.5 266.5)" fill="#5BB261"/><circle cx="106.5" cy="266.5" r="1.5" transform="rotate(90 106.5 266.5)" fill="#5BB261"/><circle cx="71.5" cy="266.5" r="1.5" transform="rotate(90 71.5 266.5)" fill="#5BB261"/><circle cx="36.5" cy="266.5" r="1.5" transform="rotate(90 36.5 266.5)" fill="#5BB261"/><circle cx="1.5" cy="266.5" r="1.5" transform="rotate(90 1.5 266.5)" fill="#5BB261"/><circle cx="246.5" cy="301.5" r="1.5" transform="rotate(90 246.5 301.5)" fill="#5BB261"/><circle cx="211.5" cy="301.5" r="1.5" transform="rotate(90 211.5 301.5)" fill="#5BB261"/><circle cx="176.5" cy="301.5" r="1.5" transform="rotate(90 176.5 301.5)" fill="#5BB261"/><circle cx="141.5" cy="301.5" r="1.5" transform="rotate(90 141.5 301.5)" fill="#5BB261"/><circle cx="106.5" cy="301.5" r="1.5" transform="rotate(90 106.5 301.5)" fill="#5BB261"/><circle cx="71.5" cy="301.5" r="1.5" transform="rotate(90 71.5 301.5)" fill="#5BB261"/><circle cx="36.5" cy="301.5" r="1.5" transform="rotate(90 36.5 301.5)" fill="#5BB261"/><circle cx="1.5" cy="301.5" r="1.5" transform="rotate(90 1.5 301.5)" fill="#5BB261"/><circle cx="246.5" cy="336.5" r="1.5" transform="rotate(90 246.5 336.5)" fill="#5BB261"/><circle cx="211.5" cy="336.5" r="1.5" transform="rotate(90 211.5 336.5)" fill="#5BB261"/><circle cx="176.5" cy="336.5" r="1.5" transform="rotate(90 176.5 336.5)" fill="#5BB261"/><circle cx="141.5" cy="336.5" r="1.5" transform="rotate(90 141.5 336.5)" fill="#5BB261"/><circle cx="106.5" cy="336.5" r="1.5" transform="rotate(90 106.5 336.5)" fill="#5BB261"/><circle cx="71.5" cy="336.5" r="1.5" transform="rotate(90 71.5 336.5)" fill="#5BB261"/><circle cx="36.5" cy="336.5" r="1.5" transform="rotate(90 36.5 336.5)" fill="#5BB261"/><circle cx="1.5" cy="336.5" r="1.5" transform="rotate(90 1.5 336.5)" fill="#5BB261"/></svg>