<svg width="388" height="248" fill="none" xmlns="http://www.w3.org/2000/svg"><circle cx="1.5" cy="1.5" r="1.5" fill="#5BB261"/><circle cx="1.5" cy="36.5" r="1.5" fill="#5BB261"/><circle cx="1.5" cy="71.5" r="1.5" fill="#5BB261"/><circle cx="1.5" cy="106.5" r="1.5" fill="#5BB261"/><circle cx="1.5" cy="141.5" r="1.5" fill="#5BB261"/><circle cx="1.5" cy="176.5" r="1.5" fill="#5BB261"/><circle cx="1.5" cy="211.5" r="1.5" fill="#5BB261"/><circle cx="1.5" cy="246.5" r="1.5" fill="#5BB261"/><circle cx="36.5" cy="1.5" r="1.5" fill="#5BB261"/><circle cx="36.5" cy="36.5" r="1.5" fill="#5BB261"/><circle cx="36.5" cy="71.5" r="1.5" fill="#5BB261"/><circle cx="36.5" cy="106.5" r="1.5" fill="#5BB261"/><circle cx="36.5" cy="141.5" r="1.5" fill="#5BB261"/><circle cx="36.5" cy="176.5" r="1.5" fill="#5BB261"/><circle cx="36.5" cy="211.5" r="1.5" fill="#5BB261"/><circle cx="36.5" cy="246.5" r="1.5" fill="#5BB261"/><circle cx="71.5" cy="1.5" r="1.5" fill="#5BB261"/><circle cx="71.5" cy="36.5" r="1.5" fill="#5BB261"/><circle cx="71.5" cy="71.5" r="1.5" fill="#5BB261"/><circle cx="71.5" cy="106.5" r="1.5" fill="#5BB261"/><circle cx="71.5" cy="141.5" r="1.5" fill="#5BB261"/><circle cx="71.5" cy="176.5" r="1.5" fill="#5BB261"/><circle cx="71.5" cy="211.5" r="1.5" fill="#5BB261"/><circle cx="71.5" cy="246.5" r="1.5" fill="#5BB261"/><circle cx="106.5" cy="1.5" r="1.5" fill="#5BB261"/><circle cx="106.5" cy="36.5" r="1.5" fill="#5BB261"/><circle cx="106.5" cy="71.5" r="1.5" fill="#5BB261"/><circle cx="106.5" cy="106.5" r="1.5" fill="#5BB261"/><circle cx="106.5" cy="141.5" r="1.5" fill="#5BB261"/><circle cx="106.5" cy="176.5" r="1.5" fill="#5BB261"/><circle cx="106.5" cy="211.5" r="1.5" fill="#5BB261"/><circle cx="106.5" cy="246.5" r="1.5" fill="#5BB261"/><circle cx="141.5" cy="1.5" r="1.5" fill="#5BB261"/><circle cx="141.5" cy="36.5" r="1.5" fill="#5BB261"/><circle cx="141.5" cy="71.5" r="1.5" fill="#5BB261"/><circle cx="141.5" cy="106.5" r="1.5" fill="#5BB261"/><circle cx="141.5" cy="141.5" r="1.5" fill="#5BB261"/><circle cx="141.5" cy="176.5" r="1.5" fill="#5BB261"/><circle cx="141.5" cy="211.5" r="1.5" fill="#5BB261"/><circle cx="141.5" cy="246.5" r="1.5" fill="#5BB261"/><circle cx="176.5" cy="1.5" r="1.5" fill="#5BB261"/><circle cx="176.5" cy="36.5" r="1.5" fill="#5BB261"/><circle cx="176.5" cy="71.5" r="1.5" fill="#5BB261"/><circle cx="176.5" cy="106.5" r="1.5" fill="#5BB261"/><circle cx="176.5" cy="141.5" r="1.5" fill="#5BB261"/><circle cx="176.5" cy="176.5" r="1.5" fill="#5BB261"/><circle cx="176.5" cy="211.5" r="1.5" fill="#5BB261"/><circle cx="176.5" cy="246.5" r="1.5" fill="#5BB261"/><circle cx="211.5" cy="1.5" r="1.5" fill="#5BB261"/><circle cx="211.5" cy="36.5" r="1.5" fill="#5BB261"/><circle cx="211.5" cy="71.5" r="1.5" fill="#5BB261"/><circle cx="211.5" cy="106.5" r="1.5" fill="#5BB261"/><circle cx="211.5" cy="141.5" r="1.5" fill="#5BB261"/><circle cx="211.5" cy="176.5" r="1.5" fill="#5BB261"/><circle cx="211.5" cy="211.5" r="1.5" fill="#5BB261"/><circle cx="211.5" cy="246.5" r="1.5" fill="#5BB261"/><circle cx="246.5" cy="1.5" r="1.5" fill="#5BB261"/><circle cx="246.5" cy="36.5" r="1.5" fill="#5BB261"/><circle cx="246.5" cy="71.5" r="1.5" fill="#5BB261"/><circle cx="246.5" cy="106.5" r="1.5" fill="#5BB261"/><circle cx="246.5" cy="141.5" r="1.5" fill="#5BB261"/><circle cx="246.5" cy="176.5" r="1.5" fill="#5BB261"/><circle cx="246.5" cy="211.5" r="1.5" fill="#5BB261"/><circle cx="246.5" cy="246.5" r="1.5" fill="#5BB261"/><circle cx="281.5" cy="1.5" r="1.5" fill="#5BB261"/><circle cx="281.5" cy="36.5" r="1.5" fill="#5BB261"/><circle cx="281.5" cy="71.5" r="1.5" fill="#5BB261"/><circle cx="281.5" cy="106.5" r="1.5" fill="#5BB261"/><circle cx="281.5" cy="141.5" r="1.5" fill="#5BB261"/><circle cx="281.5" cy="176.5" r="1.5" fill="#5BB261"/><circle cx="281.5" cy="211.5" r="1.5" fill="#5BB261"/><circle cx="281.5" cy="246.5" r="1.5" fill="#5BB261"/><circle cx="316.5" cy="1.5" r="1.5" fill="#5BB261"/><circle cx="316.5" cy="36.5" r="1.5" fill="#5BB261"/><circle cx="316.5" cy="71.5" r="1.5" fill="#5BB261"/><circle cx="316.5" cy="106.5" r="1.5" fill="#5BB261"/><circle cx="316.5" cy="141.5" r="1.5" fill="#5BB261"/><circle cx="316.5" cy="176.5" r="1.5" fill="#5BB261"/><circle cx="316.5" cy="211.5" r="1.5" fill="#5BB261"/><circle cx="316.5" cy="246.5" r="1.5" fill="#5BB261"/><circle cx="351.5" cy="1.5" r="1.5" fill="#5BB261"/><circle cx="351.5" cy="36.5" r="1.5" fill="#5BB261"/><circle cx="351.5" cy="71.5" r="1.5" fill="#5BB261"/><circle cx="351.5" cy="106.5" r="1.5" fill="#5BB261"/><circle cx="351.5" cy="141.5" r="1.5" fill="#5BB261"/><circle cx="351.5" cy="176.5" r="1.5" fill="#5BB261"/><circle cx="351.5" cy="211.5" r="1.5" fill="#5BB261"/><circle cx="351.5" cy="246.5" r="1.5" fill="#5BB261"/><circle cx="386.5" cy="1.5" r="1.5" fill="#5BB261"/><circle cx="386.5" cy="36.5" r="1.5" fill="#5BB261"/><circle cx="386.5" cy="71.5" r="1.5" fill="#5BB261"/><circle cx="386.5" cy="106.5" r="1.5" fill="#5BB261"/><circle cx="386.5" cy="141.5" r="1.5" fill="#5BB261"/><circle cx="386.5" cy="176.5" r="1.5" fill="#5BB261"/><circle cx="386.5" cy="211.5" r="1.5" fill="#5BB261"/><circle cx="386.5" cy="246.5" r="1.5" fill="#5BB261"/></svg>