<svg width="248" height="388" fill="none" xmlns="http://www.w3.org/2000/svg"><circle cx="1.5" cy="386.5" r="1.5" transform="rotate(-90 1.5 386.5)" fill="#C6CCD6"/><circle cx="36.5" cy="386.5" r="1.5" transform="rotate(-90 36.5 386.5)" fill="#C6CCD6"/><circle cx="71.5" cy="386.5" r="1.5" transform="rotate(-90 71.5 386.5)" fill="#C6CCD6"/><circle cx="106.5" cy="386.5" r="1.5" transform="rotate(-90 106.5 386.5)" fill="#C6CCD6"/><circle cx="141.5" cy="386.5" r="1.5" transform="rotate(-90 141.5 386.5)" fill="#C6CCD6"/><circle cx="176.5" cy="386.5" r="1.5" transform="rotate(-90 176.5 386.5)" fill="#C6CCD6"/><circle cx="211.5" cy="386.5" r="1.5" transform="rotate(-90 211.5 386.5)" fill="#C6CCD6"/><circle cx="246.5" cy="386.5" r="1.5" transform="rotate(-90 246.5 386.5)" fill="#C6CCD6"/><circle cx="1.5" cy="351.5" r="1.5" transform="rotate(-90 1.5 351.5)" fill="#C6CCD6"/><circle cx="36.5" cy="351.5" r="1.5" transform="rotate(-90 36.5 351.5)" fill="#C6CCD6"/><circle cx="71.5" cy="351.5" r="1.5" transform="rotate(-90 71.5 351.5)" fill="#C6CCD6"/><circle cx="106.5" cy="351.5" r="1.5" transform="rotate(-90 106.5 351.5)" fill="#C6CCD6"/><circle cx="141.5" cy="351.5" r="1.5" transform="rotate(-90 141.5 351.5)" fill="#C6CCD6"/><circle cx="176.5" cy="351.5" r="1.5" transform="rotate(-90 176.5 351.5)" fill="#C6CCD6"/><circle cx="211.5" cy="351.5" r="1.5" transform="rotate(-90 211.5 351.5)" fill="#C6CCD6"/><circle cx="246.5" cy="351.5" r="1.5" transform="rotate(-90 246.5 351.5)" fill="#C6CCD6"/><circle cx="1.5" cy="316.5" r="1.5" transform="rotate(-90 1.5 316.5)" fill="#C6CCD6"/><circle cx="36.5" cy="316.5" r="1.5" transform="rotate(-90 36.5 316.5)" fill="#C6CCD6"/><circle cx="71.5" cy="316.5" r="1.5" transform="rotate(-90 71.5 316.5)" fill="#C6CCD6"/><circle cx="106.5" cy="316.5" r="1.5" transform="rotate(-90 106.5 316.5)" fill="#C6CCD6"/><circle cx="141.5" cy="316.5" r="1.5" transform="rotate(-90 141.5 316.5)" fill="#C6CCD6"/><circle cx="176.5" cy="316.5" r="1.5" transform="rotate(-90 176.5 316.5)" fill="#C6CCD6"/><circle cx="211.5" cy="316.5" r="1.5" transform="rotate(-90 211.5 316.5)" fill="#C6CCD6"/><circle cx="246.5" cy="316.5" r="1.5" transform="rotate(-90 246.5 316.5)" fill="#C6CCD6"/><circle cx="1.5" cy="281.5" r="1.5" transform="rotate(-90 1.5 281.5)" fill="#C6CCD6"/><circle cx="36.5" cy="281.5" r="1.5" transform="rotate(-90 36.5 281.5)" fill="#C6CCD6"/><circle cx="71.5" cy="281.5" r="1.5" transform="rotate(-90 71.5 281.5)" fill="#C6CCD6"/><circle cx="106.5" cy="281.5" r="1.5" transform="rotate(-90 106.5 281.5)" fill="#C6CCD6"/><circle cx="141.5" cy="281.5" r="1.5" transform="rotate(-90 141.5 281.5)" fill="#C6CCD6"/><circle cx="176.5" cy="281.5" r="1.5" transform="rotate(-90 176.5 281.5)" fill="#C6CCD6"/><circle cx="211.5" cy="281.5" r="1.5" transform="rotate(-90 211.5 281.5)" fill="#C6CCD6"/><circle cx="246.5" cy="281.5" r="1.5" transform="rotate(-90 246.5 281.5)" fill="#C6CCD6"/><circle cx="1.5" cy="246.5" r="1.5" transform="rotate(-90 1.5 246.5)" fill="#C6CCD6"/><circle cx="36.5" cy="246.5" r="1.5" transform="rotate(-90 36.5 246.5)" fill="#C6CCD6"/><circle cx="71.5" cy="246.5" r="1.5" transform="rotate(-90 71.5 246.5)" fill="#C6CCD6"/><circle cx="106.5" cy="246.5" r="1.5" transform="rotate(-90 106.5 246.5)" fill="#C6CCD6"/><circle cx="141.5" cy="246.5" r="1.5" transform="rotate(-90 141.5 246.5)" fill="#C6CCD6"/><circle cx="176.5" cy="246.5" r="1.5" transform="rotate(-90 176.5 246.5)" fill="#C6CCD6"/><circle cx="211.5" cy="246.5" r="1.5" transform="rotate(-90 211.5 246.5)" fill="#C6CCD6"/><circle cx="246.5" cy="246.5" r="1.5" transform="rotate(-90 246.5 246.5)" fill="#C6CCD6"/><circle cx="1.5" cy="211.5" r="1.5" transform="rotate(-90 1.5 211.5)" fill="#C6CCD6"/><circle cx="36.5" cy="211.5" r="1.5" transform="rotate(-90 36.5 211.5)" fill="#C6CCD6"/><circle cx="71.5" cy="211.5" r="1.5" transform="rotate(-90 71.5 211.5)" fill="#C6CCD6"/><circle cx="106.5" cy="211.5" r="1.5" transform="rotate(-90 106.5 211.5)" fill="#C6CCD6"/><circle cx="141.5" cy="211.5" r="1.5" transform="rotate(-90 141.5 211.5)" fill="#C6CCD6"/><circle cx="176.5" cy="211.5" r="1.5" transform="rotate(-90 176.5 211.5)" fill="#C6CCD6"/><circle cx="211.5" cy="211.5" r="1.5" transform="rotate(-90 211.5 211.5)" fill="#C6CCD6"/><circle cx="246.5" cy="211.5" r="1.5" transform="rotate(-90 246.5 211.5)" fill="#C6CCD6"/><circle cx="1.5" cy="176.5" r="1.5" transform="rotate(-90 1.5 176.5)" fill="#C6CCD6"/><circle cx="36.5" cy="176.5" r="1.5" transform="rotate(-90 36.5 176.5)" fill="#C6CCD6"/><circle cx="71.5" cy="176.5" r="1.5" transform="rotate(-90 71.5 176.5)" fill="#C6CCD6"/><circle cx="106.5" cy="176.5" r="1.5" transform="rotate(-90 106.5 176.5)" fill="#C6CCD6"/><circle cx="141.5" cy="176.5" r="1.5" transform="rotate(-90 141.5 176.5)" fill="#C6CCD6"/><circle cx="176.5" cy="176.5" r="1.5" transform="rotate(-90 176.5 176.5)" fill="#C6CCD6"/><circle cx="211.5" cy="176.5" r="1.5" transform="rotate(-90 211.5 176.5)" fill="#C6CCD6"/><circle cx="246.5" cy="176.5" r="1.5" transform="rotate(-90 246.5 176.5)" fill="#C6CCD6"/><circle cx="1.5" cy="141.5" r="1.5" transform="rotate(-90 1.5 141.5)" fill="#C6CCD6"/><circle cx="36.5" cy="141.5" r="1.5" transform="rotate(-90 36.5 141.5)" fill="#C6CCD6"/><circle cx="71.5" cy="141.5" r="1.5" transform="rotate(-90 71.5 141.5)" fill="#C6CCD6"/><circle cx="106.5" cy="141.5" r="1.5" transform="rotate(-90 106.5 141.5)" fill="#C6CCD6"/><circle cx="141.5" cy="141.5" r="1.5" transform="rotate(-90 141.5 141.5)" fill="#C6CCD6"/><circle cx="176.5" cy="141.5" r="1.5" transform="rotate(-90 176.5 141.5)" fill="#C6CCD6"/><circle cx="211.5" cy="141.5" r="1.5" transform="rotate(-90 211.5 141.5)" fill="#C6CCD6"/><circle cx="246.5" cy="141.5" r="1.5" transform="rotate(-90 246.5 141.5)" fill="#C6CCD6"/><circle cx="1.5" cy="106.5" r="1.5" transform="rotate(-90 1.5 106.5)" fill="#C6CCD6"/><circle cx="36.5" cy="106.5" r="1.5" transform="rotate(-90 36.5 106.5)" fill="#C6CCD6"/><circle cx="71.5" cy="106.5" r="1.5" transform="rotate(-90 71.5 106.5)" fill="#C6CCD6"/><circle cx="106.5" cy="106.5" r="1.5" transform="rotate(-90 106.5 106.5)" fill="#C6CCD6"/><circle cx="141.5" cy="106.5" r="1.5" transform="rotate(-90 141.5 106.5)" fill="#C6CCD6"/><circle cx="176.5" cy="106.5" r="1.5" transform="rotate(-90 176.5 106.5)" fill="#C6CCD6"/><circle cx="211.5" cy="106.5" r="1.5" transform="rotate(-90 211.5 106.5)" fill="#C6CCD6"/><circle cx="246.5" cy="106.5" r="1.5" transform="rotate(-90 246.5 106.5)" fill="#C6CCD6"/><circle cx="1.5" cy="71.5" r="1.5" transform="rotate(-90 1.5 71.5)" fill="#C6CCD6"/><circle cx="36.5" cy="71.5" r="1.5" transform="rotate(-90 36.5 71.5)" fill="#C6CCD6"/><circle cx="71.5" cy="71.5" r="1.5" transform="rotate(-90 71.5 71.5)" fill="#C6CCD6"/><circle cx="106.5" cy="71.5" r="1.5" transform="rotate(-90 106.5 71.5)" fill="#C6CCD6"/><circle cx="141.5" cy="71.5" r="1.5" transform="rotate(-90 141.5 71.5)" fill="#C6CCD6"/><circle cx="176.5" cy="71.5" r="1.5" transform="rotate(-90 176.5 71.5)" fill="#C6CCD6"/><circle cx="211.5" cy="71.5" r="1.5" transform="rotate(-90 211.5 71.5)" fill="#C6CCD6"/><circle cx="246.5" cy="71.5" r="1.5" transform="rotate(-90 246.5 71.5)" fill="#C6CCD6"/><circle cx="1.5" cy="36.5" r="1.5" transform="rotate(-90 1.5 36.5)" fill="#C6CCD6"/><circle cx="36.5" cy="36.5" r="1.5" transform="rotate(-90 36.5 36.5)" fill="#C6CCD6"/><circle cx="71.5" cy="36.5" r="1.5" transform="rotate(-90 71.5 36.5)" fill="#C6CCD6"/><circle cx="106.5" cy="36.5" r="1.5" transform="rotate(-90 106.5 36.5)" fill="#C6CCD6"/><circle cx="141.5" cy="36.5" r="1.5" transform="rotate(-90 141.5 36.5)" fill="#C6CCD6"/><circle cx="176.5" cy="36.5" r="1.5" transform="rotate(-90 176.5 36.5)" fill="#C6CCD6"/><circle cx="211.5" cy="36.5" r="1.5" transform="rotate(-90 211.5 36.5)" fill="#C6CCD6"/><circle cx="246.5" cy="36.5" r="1.5" transform="rotate(-90 246.5 36.5)" fill="#C6CCD6"/><circle cx="1.5" cy="1.5" r="1.5" transform="rotate(-90 1.5 1.5)" fill="#C6CCD6"/><circle cx="36.5" cy="1.5" r="1.5" transform="rotate(-90 36.5 1.5)" fill="#C6CCD6"/><circle cx="71.5" cy="1.5" r="1.5" transform="rotate(-90 71.5 1.5)" fill="#C6CCD6"/><circle cx="106.5" cy="1.5" r="1.5" transform="rotate(-90 106.5 1.5)" fill="#C6CCD6"/><circle cx="141.5" cy="1.5" r="1.5" transform="rotate(-90 141.5 1.5)" fill="#C6CCD6"/><circle cx="176.5" cy="1.5" r="1.5" transform="rotate(-90 176.5 1.5)" fill="#C6CCD6"/><circle cx="211.5" cy="1.5" r="1.5" transform="rotate(-90 211.5 1.5)" fill="#C6CCD6"/><circle cx="246.5" cy="1.5" r="1.5" transform="rotate(-90 246.5 1.5)" fill="#C6CCD6"/></svg>