<svg width="375" height="971" fill="none" xmlns="http://www.w3.org/2000/svg"><g clip-path="url(#clip0_878_13776)"><path fill="#F7F9FC" d="M0 0h375v971H0z"/><circle cx="32.5" cy="479.5" r="1.5" fill="#D9DEE7"/><circle cx="32.5" cy="505.5" r="1.5" fill="#D9DEE7"/><circle cx="32.5" cy="531.5" r="1.5" fill="#D9DEE7"/><circle cx="32.5" cy="557.5" r="1.5" fill="#D9DEE7"/><circle cx="32.5" cy="583.5" r="1.5" fill="#D9DEE7"/><circle cx="32.5" cy="609.5" r="1.5" fill="#D9DEE7"/><circle cx="66.5" cy="479.5" r="1.5" fill="#D9DEE7"/><circle cx="66.5" cy="505.5" r="1.5" fill="#D9DEE7"/><circle cx="66.5" cy="531.5" r="1.5" fill="#D9DEE7"/><circle cx="66.5" cy="557.5" r="1.5" fill="#D9DEE7"/><circle cx="66.5" cy="583.5" r="1.5" fill="#D9DEE7"/><circle cx="66.5" cy="609.5" r="1.5" fill="#D9DEE7"/><circle cx="32.5" cy="780.5" r="1.5" fill="#D9DEE7"/><circle cx="32.5" cy="806.5" r="1.5" fill="#D9DEE7"/><circle cx="32.5" cy="832.5" r="1.5" fill="#D9DEE7"/><circle cx="32.5" cy="858.5" r="1.5" fill="#D9DEE7"/><circle cx="32.5" cy="884.5" r="1.5" fill="#D9DEE7"/><circle cx="32.5" cy="910.5" r="1.5" fill="#D9DEE7"/><circle cx="66.5" cy="780.5" r="1.5" fill="#D9DEE7"/><circle cx="66.5" cy="806.5" r="1.5" fill="#D9DEE7"/><circle cx="66.5" cy="832.5" r="1.5" fill="#D9DEE7"/><circle cx="66.5" cy="858.5" r="1.5" fill="#D9DEE7"/><circle cx="66.5" cy="884.5" r="1.5" fill="#D9DEE7"/><circle cx="66.5" cy="910.5" r="1.5" fill="#D9DEE7"/><circle cx="100.5" cy="780.5" r="1.5" fill="#D9DEE7"/><circle cx="100.5" cy="806.5" r="1.5" fill="#D9DEE7"/><circle cx="100.5" cy="832.5" r="1.5" fill="#D9DEE7"/><circle cx="100.5" cy="858.5" r="1.5" fill="#D9DEE7"/><circle cx="100.5" cy="884.5" r="1.5" fill="#D9DEE7"/><circle cx="100.5" cy="910.5" r="1.5" fill="#D9DEE7"/><circle cx="134.5" cy="780.5" r="1.5" fill="#D9DEE7"/><circle cx="134.5" cy="806.5" r="1.5" fill="#D9DEE7"/><circle cx="134.5" cy="832.5" r="1.5" fill="#D9DEE7"/><circle cx="134.5" cy="858.5" r="1.5" fill="#D9DEE7"/><circle cx="134.5" cy="884.5" r="1.5" fill="#D9DEE7"/><circle cx="134.5" cy="910.5" r="1.5" fill="#D9DEE7"/><circle cx="168.5" cy="780.5" r="1.5" fill="#D9DEE7"/><circle cx="168.5" cy="806.5" r="1.5" fill="#D9DEE7"/><circle cx="168.5" cy="832.5" r="1.5" fill="#D9DEE7"/><circle cx="168.5" cy="858.5" r="1.5" fill="#D9DEE7"/><circle cx="168.5" cy="884.5" r="1.5" fill="#D9DEE7"/><circle cx="168.5" cy="910.5" r="1.5" fill="#D9DEE7"/><circle cx="202.5" cy="780.5" r="1.5" fill="#D9DEE7"/><circle cx="202.5" cy="806.5" r="1.5" fill="#D9DEE7"/><circle cx="202.5" cy="832.5" r="1.5" fill="#D9DEE7"/><circle cx="202.5" cy="858.5" r="1.5" fill="#D9DEE7"/><circle cx="202.5" cy="884.5" r="1.5" fill="#D9DEE7"/><circle cx="202.5" cy="910.5" r="1.5" fill="#D9DEE7"/><circle cx="236.5" cy="780.5" r="1.5" fill="#D9DEE7"/><circle cx="236.5" cy="806.5" r="1.5" fill="#D9DEE7"/><circle cx="236.5" cy="832.5" r="1.5" fill="#D9DEE7"/><circle cx="236.5" cy="858.5" r="1.5" fill="#D9DEE7"/><circle cx="236.5" cy="884.5" r="1.5" fill="#D9DEE7"/><circle cx="236.5" cy="910.5" r="1.5" fill="#D9DEE7"/><circle cx="270.5" cy="780.5" r="1.5" fill="#D9DEE7"/><circle cx="270.5" cy="806.5" r="1.5" fill="#D9DEE7"/><circle cx="270.5" cy="832.5" r="1.5" fill="#D9DEE7"/><circle cx="270.5" cy="858.5" r="1.5" fill="#D9DEE7"/><circle cx="270.5" cy="884.5" r="1.5" fill="#D9DEE7"/><circle cx="270.5" cy="910.5" r="1.5" fill="#D9DEE7"/><circle cx="236.5" cy="230.5" r="1.5" fill="#D9DEE7"/><circle cx="236.5" cy="256.5" r="1.5" fill="#D9DEE7"/><circle cx="236.5" cy="282.5" r="1.5" fill="#D9DEE7"/><circle cx="236.5" cy="308.5" r="1.5" fill="#D9DEE7"/><circle cx="236.5" cy="334.5" r="1.5" fill="#D9DEE7"/><circle cx="236.5" cy="360.5" r="1.5" fill="#D9DEE7"/><circle cx="270.5" cy="230.5" r="1.5" fill="#D9DEE7"/><circle cx="270.5" cy="256.5" r="1.5" fill="#D9DEE7"/><circle cx="270.5" cy="282.5" r="1.5" fill="#D9DEE7"/><circle cx="270.5" cy="308.5" r="1.5" fill="#D9DEE7"/><circle cx="270.5" cy="334.5" r="1.5" fill="#D9DEE7"/><circle cx="270.5" cy="360.5" r="1.5" fill="#D9DEE7"/><circle cx="304.5" cy="230.5" r="1.5" fill="#D9DEE7"/><circle cx="304.5" cy="256.5" r="1.5" fill="#D9DEE7"/><circle cx="304.5" cy="282.5" r="1.5" fill="#D9DEE7"/><circle cx="304.5" cy="308.5" r="1.5" fill="#D9DEE7"/><circle cx="304.5" cy="334.5" r="1.5" fill="#D9DEE7"/><circle cx="304.5" cy="360.5" r="1.5" fill="#D9DEE7"/><circle cx="338.5" cy="230.5" r="1.5" fill="#D9DEE7"/><circle cx="338.5" cy="256.5" r="1.5" fill="#D9DEE7"/><circle cx="338.5" cy="282.5" r="1.5" fill="#D9DEE7"/><circle cx="338.5" cy="308.5" r="1.5" fill="#D9DEE7"/><circle cx="338.5" cy="334.5" r="1.5" fill="#D9DEE7"/><circle cx="338.5" cy="360.5" r="1.5" fill="#D9DEE7"/><circle cx="372.5" cy="230.5" r="1.5" fill="#D9DEE7"/><circle cx="372.5" cy="256.5" r="1.5" fill="#D9DEE7"/><circle cx="372.5" cy="282.5" r="1.5" fill="#D9DEE7"/><circle cx="372.5" cy="308.5" r="1.5" fill="#D9DEE7"/><circle cx="372.5" cy="334.5" r="1.5" fill="#D9DEE7"/><circle cx="372.5" cy="360.5" r="1.5" fill="#D9DEE7"/><path opacity=".3" fill-rule="evenodd" clip-rule="evenodd" d="M-366.631.13c2.63 42.616 29.977 77.317 53.465 113.024 24.832 37.75 43.941 84.934 86.643 99.971 42.962 15.129 88.212-8.448 131.297-23.226 42.267-14.498 88.525-25.801 115.41-61.395C47.27 92.646 51.188 44.909 48.114.129 45.202-42.303 27.773-81.18 3.396-116.088c-24.83-35.559-53.184-72.937-95.177-84.121-41.22-10.978-81.491 13.078-122.053 26.268-40.503 13.17-85.886 18.509-113.939 50.468-29.239 33.31-41.585 79.427-38.858 123.602zm628 1016c2.63 42.62 29.977 77.32 53.465 113.02 24.832 37.75 43.941 84.94 86.643 99.97 42.962 15.13 88.212-8.44 131.297-23.22 42.268-14.5 88.525-25.8 115.41-61.4 27.085-35.85 31.004-83.59 27.93-128.37-2.912-42.433-20.341-81.31-44.718-116.218-24.83-35.559-53.184-72.937-95.177-84.121-41.22-10.978-81.491 13.078-122.053 26.268-40.503 13.17-85.886 18.509-113.939 50.468-29.239 33.31-41.585 79.427-38.858 123.603z" fill="#D9DEE7" stroke="#D9DEE7"/><path opacity=".3" clip-rule="evenodd" d="M-382.631-72.87c2.63 42.616 29.977 77.317 53.465 113.024 24.832 37.75 43.941 84.934 86.643 99.971 42.962 15.129 88.212-8.448 131.297-23.226 42.267-14.498 88.525-25.801 115.41-61.395C31.27 19.646 35.188-28.091 32.114-72.871c-2.912-42.432-20.341-81.309-44.718-116.217-24.83-35.559-53.184-72.937-95.177-84.121-41.22-10.978-81.491 13.078-122.053 26.268-40.503 13.17-85.886 18.509-113.939 50.468-29.239 33.31-41.585 79.427-38.858 123.602zm652 1015.999c2.63 42.617 29.977 77.321 53.465 113.021 24.832 37.75 43.941 84.94 86.643 99.98 42.962 15.12 88.212-8.45 131.297-23.23 42.268-14.5 88.525-25.8 115.41-61.4 27.085-35.85 31.004-83.591 27.93-128.371-2.912-42.432-20.341-81.309-44.718-116.217-24.83-35.559-53.184-72.937-95.177-84.121-41.22-10.978-81.491 13.078-122.053 26.268-40.503 13.17-85.886 18.509-113.939 50.468-29.239 33.31-41.585 79.427-38.858 123.602z" stroke="#D9DEE7" stroke-width="2"/></g><defs><clipPath id="clip0_878_13776"><path fill="#fff" d="M0 0h375v971H0z"/></clipPath></defs></svg>