<svg width="1295" height="1158" fill="none" xmlns="http://www.w3.org/2000/svg"><path fill-rule="evenodd" clip-rule="evenodd" d="M544.965 430.219c3.921 63.571 44.678 115.334 79.685 168.598 37.008 56.31 65.489 126.694 129.131 149.124 64.03 22.568 131.47-12.601 195.683-34.645 62.996-21.626 131.936-38.488 172.006-91.583 40.37-53.489 46.21-124.697 41.63-191.494-4.34-63.295-30.32-121.288-66.65-173.36-37.01-53.042-79.27-108.8-141.852-125.482-61.433-16.376-121.452 19.509-181.905 39.183-60.365 19.645-128.003 27.61-169.813 75.282-43.578 49.689-61.979 118.48-57.915 184.377Z" fill="#EBF9FF"/><path fill-rule="evenodd" clip-rule="evenodd" d="M172.982 851.939c3.054 49.5 34.805 89.806 62.076 131.281 28.831 43.85 51.019 98.65 100.598 116.12 49.881 17.57 102.419-9.81 152.443-26.98 49.075-16.84 102.782-29.97 133.998-71.31 31.447-41.652 35.997-97.098 32.428-149.111-3.381-49.286-23.618-94.442-51.92-134.989-28.829-41.302-61.75-84.718-110.506-97.708-47.859-12.751-94.616 15.191-141.711 30.51-47.026 15.298-99.718 21.499-132.289 58.62-33.948 38.69-48.283 92.256-45.117 143.567Z" fill="#F5FDF2"/><path fill-rule="evenodd" clip-rule="evenodd" d="M82.339 370.217c2.415 39.277 27.527 71.258 49.095 104.166 22.802 34.791 40.35 78.276 79.562 92.134 39.451 13.943 81.002-7.785 120.566-21.405 38.813-13.361 81.289-23.779 105.977-56.583 24.872-33.047 28.47-77.042 25.648-118.312-2.675-39.106-18.679-74.935-41.063-107.107-22.801-32.772-48.838-67.22-87.399-77.528-37.851-10.117-74.83 12.054-112.077 24.209-37.193 12.138-78.866 17.059-104.627 46.512-26.85 30.699-38.186 73.201-35.682 113.914Z" fill="#F9BD64" fill-opacity=".08"/><path opacity=".4" clip-rule="evenodd" d="M633.15 223.615c-40.095 49.488-45.066 115.183-55.289 178.095-10.808 66.511-37.414 137.625-5.692 197.182 31.917 59.921 105.383 79.61 167.598 106.786 61.035 26.66 123.229 60.852 188.651 48.826 65.908-12.114 118.362-60.629 160.152-112.94 39.6-49.568 59.67-109.859 68.11-172.788 8.6-64.102 15.17-133.755-19.67-188.364-34.18-53.603-102.67-67.746-160.51-94.126-57.758-26.342-112.977-66.207-176.014-59.354-65.704 7.143-125.774 45.385-167.336 96.683Z" stroke="#99E1FF" stroke-width="2"/><path opacity=".4" clip-rule="evenodd" d="M241.472 691.171c-31.229 38.545-35.101 89.714-43.064 138.716-8.418 51.804-29.141 107.193-4.433 153.582 24.859 46.671 82.081 62.011 130.54 83.171 47.539 20.77 95.981 47.4 146.938 38.03 51.334-9.43 92.187-47.22 124.737-87.96 30.843-38.613 46.478-85.572 53.053-134.587 6.698-49.928 11.812-104.18-15.317-146.714-26.63-41.751-79.971-52.767-125.023-73.314-44.987-20.517-87.996-51.568-137.095-46.23-51.176 5.564-97.964 35.35-130.336 75.306Z" stroke="#BADEBC" stroke-width="2"/><path opacity=".4" clip-rule="evenodd" d="M135.78 242.917c-24.729 30.522-27.795 71.04-34.1 109.841-6.666 41.022-23.076 84.882-3.51 121.614 19.684 36.957 64.995 49.1 103.367 65.861 37.644 16.443 76.002 37.531 116.352 30.115 40.649-7.472 72.998-37.394 98.773-69.657 24.423-30.572 36.803-67.757 42.01-106.569 5.304-39.536 9.353-82.495-12.129-116.175-21.087-33.06-63.324-41.784-98.999-58.054-35.623-16.246-69.68-40.834-108.559-36.607-40.523 4.406-77.572 27.992-103.205 59.631Z" stroke="#FEDDAC" stroke-width="2"/><circle cx="803.5" cy="365.5" r="1.5" fill="#00B3FF"/><circle cx="803.5" cy="391.5" r="1.5" fill="#00B3FF"/><circle cx="803.5" cy="417.5" r="1.5" fill="#00B3FF"/><circle cx="803.5" cy="443.5" r="1.5" fill="#00B3FF"/><circle cx="803.5" cy="469.5" r="1.5" fill="#00B3FF"/><circle cx="803.5" cy="495.5" r="1.5" fill="#00B3FF"/><circle cx="837.5" cy="365.5" r="1.5" fill="#00B3FF"/><circle cx="837.5" cy="391.5" r="1.5" fill="#00B3FF"/><circle cx="837.5" cy="417.5" r="1.5" fill="#00B3FF"/><circle cx="837.5" cy="443.5" r="1.5" fill="#00B3FF"/><circle cx="837.5" cy="469.5" r="1.5" fill="#00B3FF"/><circle cx="837.5" cy="495.5" r="1.5" fill="#00B3FF"/><circle cx="871.5" cy="365.5" r="1.5" fill="#00B3FF"/><circle cx="871.5" cy="391.5" r="1.5" fill="#00B3FF"/><circle cx="871.5" cy="417.5" r="1.5" fill="#00B3FF"/><circle cx="871.5" cy="443.5" r="1.5" fill="#00B3FF"/><circle cx="871.5" cy="469.5" r="1.5" fill="#00B3FF"/><circle cx="871.5" cy="495.5" r="1.5" fill="#00B3FF"/><circle cx="905.5" cy="365.5" r="1.5" fill="#00B3FF"/><circle cx="905.5" cy="391.5" r="1.5" fill="#00B3FF"/><circle cx="905.5" cy="417.5" r="1.5" fill="#00B3FF"/><circle cx="905.5" cy="443.5" r="1.5" fill="#00B3FF"/><circle cx="905.5" cy="469.5" r="1.5" fill="#00B3FF"/><circle cx="905.5" cy="495.5" r="1.5" fill="#00B3FF"/><circle cx="939.5" cy="365.5" r="1.5" fill="#00B3FF"/><circle cx="939.5" cy="391.5" r="1.5" fill="#00B3FF"/><circle cx="939.5" cy="417.5" r="1.5" fill="#00B3FF"/><circle cx="939.5" cy="443.5" r="1.5" fill="#00B3FF"/><circle cx="939.5" cy="469.5" r="1.5" fill="#00B3FF"/><circle cx="939.5" cy="495.5" r="1.5" fill="#00B3FF"/><circle cx="973.5" cy="365.5" r="1.5" fill="#00B3FF"/><circle cx="973.5" cy="391.5" r="1.5" fill="#00B3FF"/><circle cx="973.5" cy="417.5" r="1.5" fill="#00B3FF"/><circle cx="973.5" cy="443.5" r="1.5" fill="#00B3FF"/><circle cx="973.5" cy="469.5" r="1.5" fill="#00B3FF"/><circle cx="973.5" cy="495.5" r="1.5" fill="#00B3FF"/><circle cx="1007.5" cy="365.5" r="1.5" fill="#00B3FF"/><circle cx="1007.5" cy="391.5" r="1.5" fill="#00B3FF"/><circle cx="1007.5" cy="417.5" r="1.5" fill="#00B3FF"/><circle cx="1007.5" cy="443.5" r="1.5" fill="#00B3FF"/><circle cx="1007.5" cy="469.5" r="1.5" fill="#00B3FF"/><circle cx="1007.5" cy="495.5" r="1.5" fill="#00B3FF"/><circle cx="1041.5" cy="365.5" r="1.5" fill="#00B3FF"/><circle cx="1041.5" cy="391.5" r="1.5" fill="#00B3FF"/><circle cx="1041.5" cy="417.5" r="1.5" fill="#00B3FF"/><circle cx="1041.5" cy="443.5" r="1.5" fill="#00B3FF"/><circle cx="1041.5" cy="469.5" r="1.5" fill="#00B3FF"/><circle cx="1041.5" cy="495.5" r="1.5" fill="#00B3FF"/></svg>