<svg width="352" height="336" fill="none" xmlns="http://www.w3.org/2000/svg"><g clip-path="url(#clip0_909_13455)"><rect width="352" height="336" rx="24" fill="#F7F9FC"/><path opacity=".3" fill-rule="evenodd" clip-rule="evenodd" d="M194.195 373.078c1.391 22.675 15.853 41.139 28.275 60.137 13.132 20.086 23.238 45.191 45.821 53.191 22.72 8.05 46.65-4.494 69.436-12.357 22.353-7.714 46.816-13.728 61.034-32.667 14.324-19.079 16.396-44.478 14.771-68.304-1.541-22.576-10.758-43.261-23.649-61.835-13.132-18.92-28.127-38.808-50.334-44.758-21.799-5.841-43.097 6.959-64.548 13.976-21.419 7.008-45.42 9.848-60.256 26.853-15.463 17.723-21.992 42.26-20.55 65.764z" fill="#C6CCD6"/><path opacity=".3" clip-rule="evenodd" d="M183.195 381.078c1.391 22.675 15.853 41.139 28.275 60.137 13.132 20.086 23.238 45.191 45.821 53.191 22.72 8.05 46.65-4.494 69.436-12.357 22.353-7.714 46.816-13.728 61.034-32.667 14.324-19.079 16.396-44.478 14.771-68.304-1.541-22.576-10.758-43.261-23.649-61.835-13.132-18.92-28.127-38.808-50.334-44.758-21.799-5.841-43.097 6.959-64.548 13.976-21.419 7.008-45.42 9.848-60.256 26.853-15.463 17.723-21.992 42.26-20.55 65.764z" stroke="#A9B3C4"/><circle cx="150.5" cy="21.5" r="1.5" fill="#D9DEE7"/><circle cx="150.5" cy="56.5" r="1.5" fill="#D9DEE7"/><circle cx="150.5" cy="91.5" r="1.5" fill="#D9DEE7"/><circle cx="150.5" cy="126.5" r="1.5" fill="#D9DEE7"/><circle cx="185.5" cy="21.5" r="1.5" fill="#D9DEE7"/><circle cx="185.5" cy="56.5" r="1.5" fill="#D9DEE7"/><circle cx="185.5" cy="91.5" r="1.5" fill="#D9DEE7"/><circle cx="185.5" cy="126.5" r="1.5" fill="#D9DEE7"/><circle cx="220.5" cy="21.5" r="1.5" fill="#D9DEE7"/><circle cx="220.5" cy="56.5" r="1.5" fill="#D9DEE7"/><circle cx="220.5" cy="91.5" r="1.5" fill="#D9DEE7"/><circle cx="220.5" cy="126.5" r="1.5" fill="#D9DEE7"/><circle cx="255.5" cy="21.5" r="1.5" fill="#D9DEE7"/><circle cx="255.5" cy="56.5" r="1.5" fill="#D9DEE7"/><circle cx="255.5" cy="91.5" r="1.5" fill="#D9DEE7"/><circle cx="255.5" cy="126.5" r="1.5" fill="#D9DEE7"/><circle cx="290.5" cy="21.5" r="1.5" fill="#D9DEE7"/><circle cx="290.5" cy="56.5" r="1.5" fill="#D9DEE7"/><circle cx="290.5" cy="91.5" r="1.5" fill="#D9DEE7"/><circle cx="290.5" cy="126.5" r="1.5" fill="#D9DEE7"/><circle cx="325.5" cy="21.5" r="1.5" fill="#D9DEE7"/><circle cx="325.5" cy="56.5" r="1.5" fill="#D9DEE7"/><circle cx="325.5" cy="91.5" r="1.5" fill="#D9DEE7"/><circle cx="325.5" cy="126.5" r="1.5" fill="#D9DEE7"/></g><defs><clipPath id="clip0_909_13455"><rect width="352" height="336" rx="24" fill="#fff"/></clipPath></defs></svg>