<svg width="1280" height="660" fill="none" xmlns="http://www.w3.org/2000/svg"><g clip-path="url(#a)"><rect width="1280" height="660" rx="24" fill="#F7F9FC"/><circle cx="922.5" cy="101.5" r="1.5" fill="#C6CCD6"/><circle cx="922.5" cy="136.5" r="1.5" fill="#C6CCD6"/><circle cx="922.5" cy="171.5" r="1.5" fill="#C6CCD6"/><circle cx="922.5" cy="206.5" r="1.5" fill="#C6CCD6"/><circle cx="922.5" cy="241.5" r="1.5" fill="#C6CCD6"/><circle cx="922.5" cy="276.5" r="1.5" fill="#C6CCD6"/><circle cx="922.5" cy="311.5" r="1.5" fill="#C6CCD6"/><circle cx="922.5" cy="346.5" r="1.5" fill="#C6CCD6"/><circle cx="957.5" cy="101.5" r="1.5" fill="#C6CCD6"/><circle cx="957.5" cy="136.5" r="1.5" fill="#C6CCD6"/><circle cx="957.5" cy="171.5" r="1.5" fill="#C6CCD6"/><circle cx="957.5" cy="206.5" r="1.5" fill="#C6CCD6"/><circle cx="957.5" cy="241.5" r="1.5" fill="#C6CCD6"/><circle cx="957.5" cy="276.5" r="1.5" fill="#C6CCD6"/><circle cx="957.5" cy="311.5" r="1.5" fill="#C6CCD6"/><circle cx="957.5" cy="346.5" r="1.5" fill="#C6CCD6"/><circle cx="992.5" cy="101.5" r="1.5" fill="#C6CCD6"/><circle cx="992.5" cy="136.5" r="1.5" fill="#C6CCD6"/><circle cx="992.5" cy="171.5" r="1.5" fill="#C6CCD6"/><circle cx="992.5" cy="206.5" r="1.5" fill="#C6CCD6"/><circle cx="992.5" cy="241.5" r="1.5" fill="#C6CCD6"/><circle cx="992.5" cy="276.5" r="1.5" fill="#C6CCD6"/><circle cx="992.5" cy="311.5" r="1.5" fill="#C6CCD6"/><circle cx="992.5" cy="346.5" r="1.5" fill="#C6CCD6"/><circle cx="1027.5" cy="101.5" r="1.5" fill="#C6CCD6"/><circle cx="1027.5" cy="136.5" r="1.5" fill="#C6CCD6"/><circle cx="1027.5" cy="171.5" r="1.5" fill="#C6CCD6"/><circle cx="1027.5" cy="206.5" r="1.5" fill="#C6CCD6"/><circle cx="1027.5" cy="241.5" r="1.5" fill="#C6CCD6"/><circle cx="1027.5" cy="276.5" r="1.5" fill="#C6CCD6"/><circle cx="1027.5" cy="311.5" r="1.5" fill="#C6CCD6"/><circle cx="1027.5" cy="346.5" r="1.5" fill="#C6CCD6"/><circle cx="1062.5" cy="101.5" r="1.5" fill="#C6CCD6"/><circle cx="1062.5" cy="136.5" r="1.5" fill="#C6CCD6"/><circle cx="1062.5" cy="171.5" r="1.5" fill="#C6CCD6"/><circle cx="1062.5" cy="206.5" r="1.5" fill="#C6CCD6"/><circle cx="1062.5" cy="241.5" r="1.5" fill="#C6CCD6"/><circle cx="1062.5" cy="276.5" r="1.5" fill="#C6CCD6"/><circle cx="1062.5" cy="311.5" r="1.5" fill="#C6CCD6"/><circle cx="1062.5" cy="346.5" r="1.5" fill="#C6CCD6"/><circle cx="1097.5" cy="101.5" r="1.5" fill="#C6CCD6"/><circle cx="1097.5" cy="136.5" r="1.5" fill="#C6CCD6"/><circle cx="1097.5" cy="171.5" r="1.5" fill="#C6CCD6"/><circle cx="1097.5" cy="206.5" r="1.5" fill="#C6CCD6"/><circle cx="1097.5" cy="241.5" r="1.5" fill="#C6CCD6"/><circle cx="1097.5" cy="276.5" r="1.5" fill="#C6CCD6"/><circle cx="1097.5" cy="311.5" r="1.5" fill="#C6CCD6"/><circle cx="1097.5" cy="346.5" r="1.5" fill="#C6CCD6"/><circle cx="1132.5" cy="101.5" r="1.5" fill="#C6CCD6"/><circle cx="1132.5" cy="136.5" r="1.5" fill="#C6CCD6"/><circle cx="1132.5" cy="171.5" r="1.5" fill="#C6CCD6"/><circle cx="1132.5" cy="206.5" r="1.5" fill="#C6CCD6"/><circle cx="1132.5" cy="241.5" r="1.5" fill="#C6CCD6"/><circle cx="1132.5" cy="276.5" r="1.5" fill="#C6CCD6"/><circle cx="1132.5" cy="311.5" r="1.5" fill="#C6CCD6"/><circle cx="1132.5" cy="346.5" r="1.5" fill="#C6CCD6"/><circle cx="1167.5" cy="101.5" r="1.5" fill="#C6CCD6"/><circle cx="1167.5" cy="136.5" r="1.5" fill="#C6CCD6"/><circle cx="1167.5" cy="171.5" r="1.5" fill="#C6CCD6"/><circle cx="1167.5" cy="206.5" r="1.5" fill="#C6CCD6"/><circle cx="1167.5" cy="241.5" r="1.5" fill="#C6CCD6"/><circle cx="1167.5" cy="276.5" r="1.5" fill="#C6CCD6"/><circle cx="1167.5" cy="311.5" r="1.5" fill="#C6CCD6"/><circle cx="1167.5" cy="346.5" r="1.5" fill="#C6CCD6"/><circle cx="1202.5" cy="101.5" r="1.5" fill="#C6CCD6"/><circle cx="1202.5" cy="136.5" r="1.5" fill="#C6CCD6"/><circle cx="1202.5" cy="171.5" r="1.5" fill="#C6CCD6"/><circle cx="1202.5" cy="206.5" r="1.5" fill="#C6CCD6"/><circle cx="1202.5" cy="241.5" r="1.5" fill="#C6CCD6"/><circle cx="1202.5" cy="276.5" r="1.5" fill="#C6CCD6"/><circle cx="1202.5" cy="311.5" r="1.5" fill="#C6CCD6"/><circle cx="1202.5" cy="346.5" r="1.5" fill="#C6CCD6"/><circle cx="1237.5" cy="101.5" r="1.5" fill="#C6CCD6"/><circle cx="1237.5" cy="136.5" r="1.5" fill="#C6CCD6"/><circle cx="1237.5" cy="171.5" r="1.5" fill="#C6CCD6"/><circle cx="1237.5" cy="206.5" r="1.5" fill="#C6CCD6"/><circle cx="1237.5" cy="241.5" r="1.5" fill="#C6CCD6"/><circle cx="1237.5" cy="276.5" r="1.5" fill="#C6CCD6"/><circle cx="1237.5" cy="311.5" r="1.5" fill="#C6CCD6"/><circle cx="1237.5" cy="346.5" r="1.5" fill="#C6CCD6"/><circle cx="1272.5" cy="101.5" r="1.5" fill="#C6CCD6"/><circle cx="1272.5" cy="136.5" r="1.5" fill="#C6CCD6"/><circle cx="1272.5" cy="171.5" r="1.5" fill="#C6CCD6"/><circle cx="1272.5" cy="206.5" r="1.5" fill="#C6CCD6"/><circle cx="1272.5" cy="241.5" r="1.5" fill="#C6CCD6"/><circle cx="1272.5" cy="276.5" r="1.5" fill="#C6CCD6"/><circle cx="1272.5" cy="311.5" r="1.5" fill="#C6CCD6"/><circle cx="1272.5" cy="346.5" r="1.5" fill="#C6CCD6"/><circle cx="13.5" cy="597.5" r="1.5" transform="rotate(-90 13.5 597.5)" fill="#C6CCD6"/><circle cx="48.5" cy="597.5" r="1.5" transform="rotate(-90 48.5 597.5)" fill="#C6CCD6"/><circle cx="83.5" cy="597.5" r="1.5" transform="rotate(-90 83.5 597.5)" fill="#C6CCD6"/><circle cx="118.5" cy="597.5" r="1.5" transform="rotate(-90 118.5 597.5)" fill="#C6CCD6"/><circle cx="153.5" cy="597.5" r="1.5" transform="rotate(-90 153.5 597.5)" fill="#C6CCD6"/><circle cx="188.5" cy="597.5" r="1.5" transform="rotate(-90 188.5 597.5)" fill="#C6CCD6"/><circle cx="13.5" cy="562.5" r="1.5" transform="rotate(-90 13.5 562.5)" fill="#C6CCD6"/><circle cx="48.5" cy="562.5" r="1.5" transform="rotate(-90 48.5 562.5)" fill="#C6CCD6"/><circle cx="83.5" cy="562.5" r="1.5" transform="rotate(-90 83.5 562.5)" fill="#C6CCD6"/><circle cx="118.5" cy="562.5" r="1.5" transform="rotate(-90 118.5 562.5)" fill="#C6CCD6"/><circle cx="153.5" cy="562.5" r="1.5" transform="rotate(-90 153.5 562.5)" fill="#C6CCD6"/><circle cx="188.5" cy="562.5" r="1.5" transform="rotate(-90 188.5 562.5)" fill="#C6CCD6"/><circle cx="13.5" cy="527.5" r="1.5" transform="rotate(-90 13.5 527.5)" fill="#C6CCD6"/><circle cx="48.5" cy="527.5" r="1.5" transform="rotate(-90 48.5 527.5)" fill="#C6CCD6"/><circle cx="83.5" cy="527.5" r="1.5" transform="rotate(-90 83.5 527.5)" fill="#C6CCD6"/><circle cx="118.5" cy="527.5" r="1.5" transform="rotate(-90 118.5 527.5)" fill="#C6CCD6"/><circle cx="153.5" cy="527.5" r="1.5" transform="rotate(-90 153.5 527.5)" fill="#C6CCD6"/><circle cx="188.5" cy="527.5" r="1.5" transform="rotate(-90 188.5 527.5)" fill="#C6CCD6"/><circle cx="13.5" cy="492.5" r="1.5" transform="rotate(-90 13.5 492.5)" fill="#C6CCD6"/><circle cx="48.5" cy="492.5" r="1.5" transform="rotate(-90 48.5 492.5)" fill="#C6CCD6"/><circle cx="83.5" cy="492.5" r="1.5" transform="rotate(-90 83.5 492.5)" fill="#C6CCD6"/><circle cx="118.5" cy="492.5" r="1.5" transform="rotate(-90 118.5 492.5)" fill="#C6CCD6"/><circle cx="153.5" cy="492.5" r="1.5" transform="rotate(-90 153.5 492.5)" fill="#C6CCD6"/><circle cx="188.5" cy="492.5" r="1.5" transform="rotate(-90 188.5 492.5)" fill="#C6CCD6"/><circle cx="13.5" cy="457.5" r="1.5" transform="rotate(-90 13.5 457.5)" fill="#C6CCD6"/><circle cx="48.5" cy="457.5" r="1.5" transform="rotate(-90 48.5 457.5)" fill="#C6CCD6"/><circle cx="83.5" cy="457.5" r="1.5" transform="rotate(-90 83.5 457.5)" fill="#C6CCD6"/><circle cx="118.5" cy="457.5" r="1.5" transform="rotate(-90 118.5 457.5)" fill="#C6CCD6"/><circle cx="153.5" cy="457.5" r="1.5" transform="rotate(-90 153.5 457.5)" fill="#C6CCD6"/><circle cx="188.5" cy="457.5" r="1.5" transform="rotate(-90 188.5 457.5)" fill="#C6CCD6"/><circle cx="13.5" cy="422.5" r="1.5" transform="rotate(-90 13.5 422.5)" fill="#C6CCD6"/><circle cx="48.5" cy="422.5" r="1.5" transform="rotate(-90 48.5 422.5)" fill="#C6CCD6"/><circle cx="83.5" cy="422.5" r="1.5" transform="rotate(-90 83.5 422.5)" fill="#C6CCD6"/><circle cx="118.5" cy="422.5" r="1.5" transform="rotate(-90 118.5 422.5)" fill="#C6CCD6"/><circle cx="153.5" cy="422.5" r="1.5" transform="rotate(-90 153.5 422.5)" fill="#C6CCD6"/><circle cx="188.5" cy="422.5" r="1.5" transform="rotate(-90 188.5 422.5)" fill="#C6CCD6"/><circle cx="13.5" cy="387.5" r="1.5" transform="rotate(-90 13.5 387.5)" fill="#C6CCD6"/><circle cx="48.5" cy="387.5" r="1.5" transform="rotate(-90 48.5 387.5)" fill="#C6CCD6"/><circle cx="83.5" cy="387.5" r="1.5" transform="rotate(-90 83.5 387.5)" fill="#C6CCD6"/><circle cx="118.5" cy="387.5" r="1.5" transform="rotate(-90 118.5 387.5)" fill="#C6CCD6"/><circle cx="153.5" cy="387.5" r="1.5" transform="rotate(-90 153.5 387.5)" fill="#C6CCD6"/><circle cx="188.5" cy="387.5" r="1.5" transform="rotate(-90 188.5 387.5)" fill="#C6CCD6"/><circle cx="13.5" cy="352.5" r="1.5" transform="rotate(-90 13.5 352.5)" fill="#C6CCD6"/><circle cx="48.5" cy="352.5" r="1.5" transform="rotate(-90 48.5 352.5)" fill="#C6CCD6"/><circle cx="83.5" cy="352.5" r="1.5" transform="rotate(-90 83.5 352.5)" fill="#C6CCD6"/><circle cx="118.5" cy="352.5" r="1.5" transform="rotate(-90 118.5 352.5)" fill="#C6CCD6"/><circle cx="153.5" cy="352.5" r="1.5" transform="rotate(-90 153.5 352.5)" fill="#C6CCD6"/><circle cx="188.5" cy="352.5" r="1.5" transform="rotate(-90 188.5 352.5)" fill="#C6CCD6"/><circle cx="13.5" cy="317.5" r="1.5" transform="rotate(-90 13.5 317.5)" fill="#C6CCD6"/><circle cx="48.5" cy="317.5" r="1.5" transform="rotate(-90 48.5 317.5)" fill="#C6CCD6"/><circle cx="83.5" cy="317.5" r="1.5" transform="rotate(-90 83.5 317.5)" fill="#C6CCD6"/><circle cx="118.5" cy="317.5" r="1.5" transform="rotate(-90 118.5 317.5)" fill="#C6CCD6"/><circle cx="153.5" cy="317.5" r="1.5" transform="rotate(-90 153.5 317.5)" fill="#C6CCD6"/><circle cx="188.5" cy="317.5" r="1.5" transform="rotate(-90 188.5 317.5)" fill="#C6CCD6"/><circle cx="13.5" cy="282.5" r="1.5" transform="rotate(-90 13.5 282.5)" fill="#C6CCD6"/><circle cx="48.5" cy="282.5" r="1.5" transform="rotate(-90 48.5 282.5)" fill="#C6CCD6"/><circle cx="83.5" cy="282.5" r="1.5" transform="rotate(-90 83.5 282.5)" fill="#C6CCD6"/><circle cx="118.5" cy="282.5" r="1.5" transform="rotate(-90 118.5 282.5)" fill="#C6CCD6"/><circle cx="153.5" cy="282.5" r="1.5" transform="rotate(-90 153.5 282.5)" fill="#C6CCD6"/><circle cx="188.5" cy="282.5" r="1.5" transform="rotate(-90 188.5 282.5)" fill="#C6CCD6"/><circle cx="13.5" cy="247.5" r="1.5" transform="rotate(-90 13.5 247.5)" fill="#C6CCD6"/><circle cx="48.5" cy="247.5" r="1.5" transform="rotate(-90 48.5 247.5)" fill="#C6CCD6"/><circle cx="83.5" cy="247.5" r="1.5" transform="rotate(-90 83.5 247.5)" fill="#C6CCD6"/><circle cx="118.5" cy="247.5" r="1.5" transform="rotate(-90 118.5 247.5)" fill="#C6CCD6"/><circle cx="153.5" cy="247.5" r="1.5" transform="rotate(-90 153.5 247.5)" fill="#C6CCD6"/><circle cx="188.5" cy="247.5" r="1.5" transform="rotate(-90 188.5 247.5)" fill="#C6CCD6"/><circle cx="13.5" cy="212.5" r="1.5" transform="rotate(-90 13.5 212.5)" fill="#C6CCD6"/><circle cx="48.5" cy="212.5" r="1.5" transform="rotate(-90 48.5 212.5)" fill="#C6CCD6"/><circle cx="83.5" cy="212.5" r="1.5" transform="rotate(-90 83.5 212.5)" fill="#C6CCD6"/><circle cx="118.5" cy="212.5" r="1.5" transform="rotate(-90 118.5 212.5)" fill="#C6CCD6"/><circle cx="153.5" cy="212.5" r="1.5" transform="rotate(-90 153.5 212.5)" fill="#C6CCD6"/><circle cx="188.5" cy="212.5" r="1.5" transform="rotate(-90 188.5 212.5)" fill="#C6CCD6"/><path opacity=".3" fill-rule="evenodd" clip-rule="evenodd" d="M752.812 749.753c5.792 93.94 66.008 170.43 117.727 249.139 54.677 83.208 96.755 187.218 190.781 220.358 94.6 33.35 194.24-18.62 289.11-51.19 93.07-31.96 194.92-56.87 254.12-135.33 59.64-79.046 68.27-184.27 61.5-282.977-6.41-93.532-44.79-179.227-98.47-256.175-54.67-78.381-117.1-160.774-209.57-185.426-90.76-24.198-179.44 28.829-268.75 57.902-89.18 29.03-189.114 40.799-250.884 111.245-64.383 73.425-91.569 175.079-85.564 272.454zm-1428-823c5.792 93.94 66.008 170.43 117.727 249.139 54.677 83.21 96.755 187.217 190.781 220.362 94.599 33.348 194.236-18.62 289.105-51.196 93.07-31.957 194.925-56.873 254.125-135.332 59.639-79.042 68.267-184.266 61.499-282.973-6.412-93.532-44.79-179.227-98.465-256.175C84.909-407.803 22.476-490.196-69.989-514.848c-90.763-24.198-179.436 28.829-268.751 57.902-89.184 29.03-189.114 40.799-250.884 111.245-64.383 73.425-91.569 175.079-85.564 272.454z" fill="#D9DEE7"/><path opacity=".3" clip-rule="evenodd" d="M805.812 202.753c5.792 93.94 66.008 170.43 117.727 249.139 54.677 83.21 96.751 187.217 190.781 220.362 94.6 33.348 194.24-18.62 289.11-51.196 93.07-31.957 194.92-56.873 254.12-135.332 59.64-79.042 68.27-184.266 61.5-282.973-6.41-93.532-44.79-179.227-98.47-256.174-54.67-78.382-117.1-160.775-209.57-185.427-90.76-24.198-179.44 28.829-268.75 57.902-89.18 29.03-189.114 40.799-250.884 111.245-64.383 73.425-91.569 175.079-85.564 272.454z" stroke="#D9DEE7" stroke-width="2"/></g><defs><clipPath id="a"><rect width="1280" height="660" rx="24" fill="#fff"/></clipPath></defs></svg>