<?xml version="1.0" encoding="UTF-8"?>
<svg xmlns="http://www.w3.org/2000/svg" width="341" height="349" viewBox="0 0 341 349" fill="none">
  <path d="M340.118 174.635C340.061 114.482 329.587 61.0807 307.223 38.6275C284.803 16.1746 242.075 0 171.467 0C100.856 0 58.2209 16.1746 35.7993 38.6275C13.38 61.0807 0 114.482 0 174.579V174.635C0.0561374 234.788 13.4244 288.19 35.7876 310.643C58.2093 333.096 100.936 349 171.545 349C242.155 349 284.79 333.096 307.212 310.643C329.632 288.19 340.118 234.788 340.118 174.692V174.635Z" fill="#1CB579"></path>
  <path d="M170.493 125.809C159.204 125.798 148.048 128.239 137.794 132.964V52.0869C137.795 50.9974 137.503 49.9275 136.95 48.9893C136.397 48.051 135.602 47.2788 134.648 46.7535C133.695 46.2281 132.618 45.9689 131.53 46.003C130.442 46.037 129.384 46.363 128.465 46.947L97.2896 66.7218C95.6679 67.7493 94.3324 69.1711 93.4075 70.8546C92.4826 72.5381 91.9984 74.4286 92 76.3499V204.427C92 247.746 127.214 283 170.507 283C213.8 283 249 247.746 249 204.405C249 161.07 213.786 125.809 170.493 125.809ZM170.493 237.148C161.82 237.148 153.503 233.699 147.371 227.56C141.239 221.42 137.794 213.094 137.794 204.412C137.794 195.73 141.239 187.403 147.371 181.264C153.503 175.125 161.82 171.676 170.493 171.676C179.165 171.676 187.482 175.125 193.614 181.264C199.747 187.403 203.192 195.73 203.192 204.412C203.192 213.094 199.747 221.42 193.614 227.56C187.482 233.699 179.165 237.148 170.493 237.148Z" fill="white"></path>
  <path d="M176 126.246V172.1C171.371 171.21 166.606 171.365 162.044 172.556C157.481 173.748 153.234 175.945 149.605 178.991C145.976 182.038 143.054 185.858 141.048 190.181C139.043 194.504 138.002 199.222 138 204V133.102C149.878 127.551 162.963 125.19 176 126.246Z" fill="url(#paint0_linear_1_2)"></path>
  <defs>
    <linearGradient id="paint0_linear_1_2" x1="138.348" y1="165.002" x2="173.529" y2="165.002" gradientUnits="userSpaceOnUse">
      <stop stop-color="#A8B6C0"></stop>
      <stop offset="1" stop-color="white"></stop>
    </linearGradient>
  </defs>
</svg>
